<svg width="42" height="40" viewBox="0 0 42 40" fill="none" xmlns="http://www.w3.org/2000/svg">
<g clip-path="url(#clip0_3_1095)">
<path d="M27.9997 38.5715H26.5999V40H27.9997V38.5715Z" fill="#B3BFCB"/>
<path d="M26.5998 38.5715H25.2V40H26.5998V38.5715Z" fill="#B3BFCB"/>
<path d="M25.2 38.5715H23.8002V40H25.2V38.5715Z" fill="#B3BFCB"/>
<path d="M23.7996 38.5715H22.3998V40H23.7996V38.5715Z" fill="#B3BFCB"/>
<path d="M19.5997 38.5715H18.1998V40H19.5997V38.5715Z" fill="#B3BFCB"/>
<path d="M18.1999 38.5715H16.8V40H18.1999V38.5715Z" fill="#B3BFCB"/>
<path d="M16.8 38.5715H15.4001V40H16.8V38.5715Z" fill="#B3BFCB"/>
<path d="M15.3997 38.5715H13.9999V40H15.3997V38.5715Z" fill="#B3BFCB"/>
<path d="M29.4001 37.143H28.0002V38.5715H29.4001V37.143Z" fill="#B3BFCB"/>
<path d="M27.9997 37.143H26.5999V38.5715H27.9997V37.143Z" fill="#B3BFCB"/>
<path d="M26.5998 37.143H25.2V38.5715H26.5998V37.143Z" fill="#B3BFCB"/>
<path d="M25.2 37.143H23.8002V38.5715H25.2V37.143Z" fill="#B3BFCB"/>
<path d="M23.7996 37.143H22.3998V38.5715H23.7996V37.143Z" fill="#B3BFCB"/>
<path d="M22.3998 37.143H21V38.5715H22.3998V37.143Z" fill="#B3BFCB"/>
<path d="M21 37.143H19.6002V38.5715H21V37.143Z" fill="#B3BFCB"/>
<path d="M19.5997 37.143H18.1998V38.5715H19.5997V37.143Z" fill="#B3BFCB"/>
<path d="M18.1999 37.143H16.8V38.5715H18.1999V37.143Z" fill="#B3BFCB"/>
<path d="M16.8 37.143H15.4001V38.5715H16.8V37.143Z" fill="#B3BFCB"/>
<path d="M15.3997 37.143H13.9999V38.5715H15.3997V37.143Z" fill="#B3BFCB"/>
<path d="M13.9998 37.143H12.6V38.5715H13.9998V37.143Z" fill="#B3BFCB"/>
<path d="M30.7998 35.7145H29.4V37.143H30.7998V35.7145Z" fill="#B3BFCB"/>
<path d="M29.4001 35.7145H28.0002V37.143H29.4001V35.7145Z" fill="#B3BFCB"/>
<path d="M27.9997 35.7145H26.5999V37.143H27.9997V35.7145Z" fill="#B3BFCB"/>
<path d="M26.5998 35.7145H25.2V37.143H26.5998V35.7145Z" fill="#B3BFCB"/>
<path d="M25.2 35.7145H23.8002V37.143H25.2V35.7145Z" fill="#B3BFCB"/>
<path d="M23.7996 35.7145H22.3998V37.143H23.7996V35.7145Z" fill="#B3BFCB"/>
<path d="M22.3998 35.7145H21V37.143H22.3998V35.7145Z" fill="#B3BFCB"/>
<path d="M21 35.7145H19.6002V37.143H21V35.7145Z" fill="#B3BFCB"/>
<path d="M19.5997 35.7145H18.1998V37.143H19.5997V35.7145Z" fill="#B3BFCB"/>
<path d="M18.1999 35.7145H16.8V37.143H18.1999V35.7145Z" fill="#B3BFCB"/>
<path d="M16.8 35.7145H15.4001V37.143H16.8V35.7145Z" fill="#B3BFCB"/>
<path d="M15.3997 35.7145H13.9999V37.143H15.3997V35.7145Z" fill="#B3BFCB"/>
<path d="M13.9998 35.7145H12.6V37.143H13.9998V35.7145Z" fill="#B3BFCB"/>
<path d="M12.6 35.7145H11.2002V37.143H12.6V35.7145Z" fill="#B3BFCB"/>
<path d="M30.7998 34.2855H29.4V35.714H30.7998V34.2855Z" fill="#B3BFCB"/>
<path d="M29.4001 34.2855H28.0002V35.714H29.4001V34.2855Z" fill="#B3BFCB"/>
<path d="M27.9997 34.2855H26.5999V35.714H27.9997V34.2855Z" fill="#B3BFCB"/>
<path d="M26.5998 34.2855H25.2V35.714H26.5998V34.2855Z" fill="#B3BFCB"/>
<path d="M25.2 34.2855H23.8002V35.714H25.2V34.2855Z" fill="#B3BFCB"/>
<path d="M23.7996 34.2855H22.3998V35.714H23.7996V34.2855Z" fill="#B3BFCB"/>
<path d="M22.3998 34.2855H21V35.714H22.3998V34.2855Z" fill="#B3BFCB"/>
<path d="M21 34.2855H19.6002V35.714H21V34.2855Z" fill="#B3BFCB"/>
<path d="M19.5997 34.2855H18.1998V35.714H19.5997V34.2855Z" fill="#B3BFCB"/>
<path d="M18.1999 34.2855H16.8V35.714H18.1999V34.2855Z" fill="#B3BFCB"/>
<path d="M16.8 34.2855H15.4001V35.714H16.8V34.2855Z" fill="#B3BFCB"/>
<path d="M15.3997 34.2855H13.9999V35.714H15.3997V34.2855Z" fill="#B3BFCB"/>
<path d="M13.9998 34.2855H12.6V35.714H13.9998V34.2855Z" fill="#B3BFCB"/>
<path d="M12.6 34.2855H11.2002V35.714H12.6V34.2855Z" fill="#B3BFCB"/>
<path d="M30.7998 32.857H29.4V34.2855H30.7998V32.857Z" fill="#B3BFCB"/>
<path d="M29.4001 32.857H28.0002V34.2855H29.4001V32.857Z" fill="#B3BFCB"/>
<path d="M27.9997 32.857H26.5999V34.2855H27.9997V32.857Z" fill="#B3BFCB"/>
<path d="M26.5998 32.857H25.2V34.2855H26.5998V32.857Z" fill="#B3BFCB"/>
<path d="M25.2 32.857H23.8002V34.2855H25.2V32.857Z" fill="#B3BFCB"/>
<path d="M23.7996 32.857H22.3998V34.2855H23.7996V32.857Z" fill="#B3BFCB"/>
<path d="M22.3998 32.857H21V34.2855H22.3998V32.857Z" fill="#B3BFCB"/>
<path d="M21 32.857H19.6002V34.2855H21V32.857Z" fill="#B3BFCB"/>
<path d="M19.5997 32.857H18.1998V34.2855H19.5997V32.857Z" fill="#B3BFCB"/>
<path d="M18.1999 32.857H16.8V34.2855H18.1999V32.857Z" fill="#B3BFCB"/>
<path d="M16.8 32.857H15.4001V34.2855H16.8V32.857Z" fill="#B3BFCB"/>
<path d="M15.3997 32.857H13.9999V34.2855H15.3997V32.857Z" fill="#B3BFCB"/>
<path d="M13.9998 32.857H12.6V34.2855H13.9998V32.857Z" fill="#B3BFCB"/>
<path d="M12.6 32.857H11.2002V34.2855H12.6V32.857Z" fill="#B3BFCB"/>
<path d="M30.7998 31.4285H29.4V32.857H30.7998V31.4285Z" fill="#B3BFCB"/>
<path d="M29.4001 31.4285H28.0002V32.857H29.4001V31.4285Z" fill="#B3BFCB"/>
<path d="M27.9997 31.4285H26.5999V32.857H27.9997V31.4285Z" fill="#B3BFCB"/>
<path d="M26.5998 31.4285H25.2V32.857H26.5998V31.4285Z" fill="#B3BFCB"/>
<path d="M25.2 31.4285H23.8002V32.857H25.2V31.4285Z" fill="#B3BFCB"/>
<path d="M23.7996 31.4285H22.3998V32.857H23.7996V31.4285Z" fill="#B3BFCB"/>
<path d="M22.3998 31.4285H21V32.857H22.3998V31.4285Z" fill="#B3BFCB"/>
<path d="M21 31.4285H19.6002V32.857H21V31.4285Z" fill="#B3BFCB"/>
<path d="M19.5997 31.4285H18.1998V32.857H19.5997V31.4285Z" fill="#B3BFCB"/>
<path d="M18.1999 31.4285H16.8V32.857H18.1999V31.4285Z" fill="#B3BFCB"/>
<path d="M16.8 31.4285H15.4001V32.857H16.8V31.4285Z" fill="#B3BFCB"/>
<path d="M15.3997 31.4285H13.9999V32.857H15.3997V31.4285Z" fill="#B3BFCB"/>
<path d="M13.9998 31.4285H12.6V32.857H13.9998V31.4285Z" fill="#B3BFCB"/>
<path d="M12.6 31.4285H11.2002V32.857H12.6V31.4285Z" fill="#B3BFCB"/>
<path d="M29.4001 30H28.0002V31.4285H29.4001V30Z" fill="#B3BFCB"/>
<path d="M27.9997 30H26.5999V31.4285H27.9997V30Z" fill="#B3BFCB"/>
<path d="M26.5998 30H25.2V31.4285H26.5998V30Z" fill="#B3BFCB"/>
<path d="M25.2 30H23.8002V31.4285H25.2V30Z" fill="#B3BFCB"/>
<path d="M23.7996 30H22.3998V31.4285H23.7996V30Z" fill="#B3BFCB"/>
<path d="M22.3998 30H21V31.4285H22.3998V30Z" fill="#B3BFCB"/>
<path d="M21 30H19.6002V31.4285H21V30Z" fill="#B3BFCB"/>
<path d="M19.5997 30H18.1998V31.4285H19.5997V30Z" fill="#B3BFCB"/>
<path d="M18.1999 30H16.8V31.4285H18.1999V30Z" fill="#B3BFCB"/>
<path d="M16.8 30H15.4001V31.4285H16.8V30Z" fill="#B3BFCB"/>
<path d="M15.3997 30H13.9999V31.4285H15.3997V30Z" fill="#B3BFCB"/>
<path d="M13.9998 30H12.6V31.4285H13.9998V30Z" fill="#B3BFCB"/>
<path d="M12.6 30H11.2002V31.4285H12.6V30Z" fill="#B3BFCB"/>
<path d="M39.1999 28.5715H37.8V30H39.1999V28.5715Z" fill="#B3BFCB"/>
<path d="M37.8 28.5715H36.4001V30H37.8V28.5715Z" fill="#B3BFCB"/>
<path d="M36.3996 28.5715H34.9998V30H36.3996V28.5715Z" fill="#B3BFCB"/>
<path d="M34.9998 28.5715H33.6V30H34.9998V28.5715Z" fill="#B3BFCB"/>
<path d="M33.6 28.5715H32.2002V30H33.6V28.5715Z" fill="#B3BFCB"/>
<path d="M29.4001 28.5715H28.0002V30H29.4001V28.5715Z" fill="#B3BFCB"/>
<path d="M27.9997 28.5715H26.5999V30H27.9997V28.5715Z" fill="#B3BFCB"/>
<path d="M26.5998 28.5715H25.2V30H26.5998V28.5715Z" fill="#B3BFCB"/>
<path d="M25.2 28.5715H23.8002V30H25.2V28.5715Z" fill="#B3BFCB"/>
<path d="M23.7996 28.5715H22.3998V30H23.7996V28.5715Z" fill="#B3BFCB"/>
<path d="M22.3998 28.5715H21V30H22.3998V28.5715Z" fill="#B3BFCB"/>
<path d="M21 28.5715H19.6002V30H21V28.5715Z" fill="#B3BFCB"/>
<path d="M19.5997 28.5715H18.1998V30H19.5997V28.5715Z" fill="#B3BFCB"/>
<path d="M18.1999 28.5715H16.8V30H18.1999V28.5715Z" fill="#B3BFCB"/>
<path d="M16.8 28.5715H15.4001V30H16.8V28.5715Z" fill="#B3BFCB"/>
<path d="M15.3997 28.5715H13.9999V30H15.3997V28.5715Z" fill="#B3BFCB"/>
<path d="M13.9998 28.5715H12.6V30H13.9998V28.5715Z" fill="#B3BFCB"/>
<path d="M9.79985 28.5715H8.40002V30H9.79985V28.5715Z" fill="#B3BFCB"/>
<path d="M8.39995 28.5715H7.00012V30H8.39995V28.5715Z" fill="#B3BFCB"/>
<path d="M6.99968 28.5715H5.59985V30H6.99968V28.5715Z" fill="#B3BFCB"/>
<path d="M5.59977 28.5715H4.19995V30H5.59977V28.5715Z" fill="#B3BFCB"/>
<path d="M4.19999 28.5715H2.80017V30H4.19999V28.5715Z" fill="#B3BFCB"/>
<path d="M40.5997 27.143H39.1998V28.5715H40.5997V27.143Z" fill="#B3BFCB"/>
<path d="M39.1999 27.143H37.8V28.5715H39.1999V27.143Z" fill="#B3BFCB"/>
<path d="M37.8 27.143H36.4001V28.5715H37.8V27.143Z" fill="#B3BFCB"/>
<path d="M36.3996 27.143H34.9998V28.5715H36.3996V27.143Z" fill="#B3BFCB"/>
<path d="M34.9998 27.143H33.6V28.5715H34.9998V27.143Z" fill="#B3BFCB"/>
<path d="M33.6 27.143H32.2002V28.5715H33.6V27.143Z" fill="#B3BFCB"/>
<path d="M32.1996 27.143H30.7998V28.5715H32.1996V27.143Z" fill="#B3BFCB"/>
<path d="M27.9997 27.143H26.5999V28.5715H27.9997V27.143Z" fill="#B3BFCB"/>
<path d="M26.5998 27.143H25.2V28.5715H26.5998V27.143Z" fill="#B3BFCB"/>
<path d="M25.2 27.143H23.8002V28.5715H25.2V27.143Z" fill="#B3BFCB"/>
<path d="M23.7996 27.143H22.3998V28.5715H23.7996V27.143Z" fill="#B3BFCB"/>
<path d="M22.3998 27.143H21V28.5715H22.3998V27.143Z" fill="#B3BFCB"/>
<path d="M21 27.143H19.6002V28.5715H21V27.143Z" fill="#B3BFCB"/>
<path d="M19.5997 27.143H18.1998V28.5715H19.5997V27.143Z" fill="#B3BFCB"/>
<path d="M18.1999 27.143H16.8V28.5715H18.1999V27.143Z" fill="#B3BFCB"/>
<path d="M16.8 27.143H15.4001V28.5715H16.8V27.143Z" fill="#B3BFCB"/>
<path d="M15.3997 27.143H13.9999V28.5715H15.3997V27.143Z" fill="#B3BFCB"/>
<path d="M11.1996 27.143H9.7998V28.5715H11.1996V27.143Z" fill="#B3BFCB"/>
<path d="M9.79985 27.143H8.40002V28.5715H9.79985V27.143Z" fill="#B3BFCB"/>
<path d="M8.39995 27.143H7.00012V28.5715H8.39995V27.143Z" fill="#B3BFCB"/>
<path d="M6.99968 27.143H5.59985V28.5715H6.99968V27.143Z" fill="#B3BFCB"/>
<path d="M5.59977 27.143H4.19995V28.5715H5.59977V27.143Z" fill="#B3BFCB"/>
<path d="M4.19999 27.143H2.80017V28.5715H4.19999V27.143Z" fill="#B3BFCB"/>
<path d="M2.7996 27.143H1.39978V28.5715H2.7996V27.143Z" fill="#B3BFCB"/>
<path d="M42 25.7145H40.6002V27.143H42V25.7145Z" fill="#B3BFCB"/>
<path d="M40.5997 25.7145H39.1998V27.143H40.5997V25.7145Z" fill="#B3BFCB"/>
<path d="M39.1999 25.7145H37.8V27.143H39.1999V25.7145Z" fill="#B3BFCB"/>
<path d="M37.8 25.7145H36.4001V27.143H37.8V25.7145Z" fill="#B3BFCB"/>
<path d="M36.3996 25.7145H34.9998V27.143H36.3996V25.7145Z" fill="#B3BFCB"/>
<path d="M34.9998 25.7145H33.6V27.143H34.9998V25.7145Z" fill="#B3BFCB"/>
<path d="M33.6 25.7145H32.2002V27.143H33.6V25.7145Z" fill="#B3BFCB"/>
<path d="M32.1996 25.7145H30.7998V27.143H32.1996V25.7145Z" fill="#B3BFCB"/>
<path d="M30.7998 25.7145H29.4V27.143H30.7998V25.7145Z" fill="#B3BFCB"/>
<path d="M26.5998 25.7145H25.2V27.143H26.5998V25.7145Z" fill="#B3BFCB"/>
<path d="M25.2 25.7145H23.8002V27.143H25.2V25.7145Z" fill="#B3BFCB"/>
<path d="M23.7996 25.7145H22.3998V27.143H23.7996V25.7145Z" fill="#B3BFCB"/>
<path d="M22.3998 25.7145H21V27.143H22.3998V25.7145Z" fill="#B3BFCB"/>
<path d="M21 25.7145H19.6002V27.143H21V25.7145Z" fill="#B3BFCB"/>
<path d="M19.5997 25.7145H18.1998V27.143H19.5997V25.7145Z" fill="#B3BFCB"/>
<path d="M18.1999 25.7145H16.8V27.143H18.1999V25.7145Z" fill="#B3BFCB"/>
<path d="M16.8 25.7145H15.4001V27.143H16.8V25.7145Z" fill="#B3BFCB"/>
<path d="M12.6 25.7145H11.2002V27.143H12.6V25.7145Z" fill="#B3BFCB"/>
<path d="M11.1996 25.7145H9.7998V27.143H11.1996V25.7145Z" fill="#B3BFCB"/>
<path d="M9.79985 25.7145H8.40002V27.143H9.79985V25.7145Z" fill="#B3BFCB"/>
<path d="M8.39995 25.7145H7.00012V27.143H8.39995V25.7145Z" fill="#B3BFCB"/>
<path d="M6.99968 25.7145H5.59985V27.143H6.99968V25.7145Z" fill="#B3BFCB"/>
<path d="M5.59977 25.7145H4.19995V27.143H5.59977V25.7145Z" fill="#B3BFCB"/>
<path d="M4.19999 25.7145H2.80017V27.143H4.19999V25.7145Z" fill="#B3BFCB"/>
<path d="M2.7996 25.7145H1.39978V27.143H2.7996V25.7145Z" fill="#B3BFCB"/>
<path d="M1.39982 25.7145H0V27.143H1.39982V25.7145Z" fill="#B3BFCB"/>
<path d="M42 24.2855H40.6002V25.714H42V24.2855Z" fill="#B3BFCB"/>
<path d="M40.5997 24.2855H39.1998V25.714H40.5997V24.2855Z" fill="#B3BFCB"/>
<path d="M39.1999 24.2855H37.8V25.714H39.1999V24.2855Z" fill="#B3BFCB"/>
<path d="M37.8 24.2855H36.4001V25.714H37.8V24.2855Z" fill="#B3BFCB"/>
<path d="M36.3996 24.2855H34.9998V25.714H36.3996V24.2855Z" fill="#B3BFCB"/>
<path d="M34.9998 24.2855H33.6V25.714H34.9998V24.2855Z" fill="#B3BFCB"/>
<path d="M33.6 24.2855H32.2002V25.714H33.6V24.2855Z" fill="#B3BFCB"/>
<path d="M32.1996 24.2855H30.7998V25.714H32.1996V24.2855Z" fill="#B3BFCB"/>
<path d="M30.7998 24.2855H29.4V25.714H30.7998V24.2855Z" fill="#B3BFCB"/>
<path d="M29.4001 24.2855H28.0002V25.714H29.4001V24.2855Z" fill="#B3BFCB"/>
<path d="M25.2 24.2855H23.8002V25.714H25.2V24.2855Z" fill="#B3BFCB"/>
<path d="M23.7996 24.2855H22.3998V25.714H23.7996V24.2855Z" fill="#B3BFCB"/>
<path d="M22.3998 24.2855H21V25.714H22.3998V24.2855Z" fill="#B3BFCB"/>
<path d="M21 24.2855H19.6002V25.714H21V24.2855Z" fill="#B3BFCB"/>
<path d="M19.5997 24.2855H18.1998V25.714H19.5997V24.2855Z" fill="#B3BFCB"/>
<path d="M18.1999 24.2855H16.8V25.714H18.1999V24.2855Z" fill="#B3BFCB"/>
<path d="M13.9998 24.2855H12.6V25.714H13.9998V24.2855Z" fill="#B3BFCB"/>
<path d="M12.6 24.2855H11.2002V25.714H12.6V24.2855Z" fill="#B3BFCB"/>
<path d="M11.1996 24.2855H9.7998V25.714H11.1996V24.2855Z" fill="#B3BFCB"/>
<path d="M9.79985 24.2855H8.40002V25.714H9.79985V24.2855Z" fill="#B3BFCB"/>
<path d="M8.39995 24.2855H7.00012V25.714H8.39995V24.2855Z" fill="#B3BFCB"/>
<path d="M6.99968 24.2855H5.59985V25.714H6.99968V24.2855Z" fill="#B3BFCB"/>
<path d="M5.59977 24.2855H4.19995V25.714H5.59977V24.2855Z" fill="#B3BFCB"/>
<path d="M4.19999 24.2855H2.80017V25.714H4.19999V24.2855Z" fill="#B3BFCB"/>
<path d="M2.7996 24.2855H1.39978V25.714H2.7996V24.2855Z" fill="#B3BFCB"/>
<path d="M1.39982 24.2855H0V25.714H1.39982V24.2855Z" fill="#B3BFCB"/>
<path d="M42 22.857H40.6002V24.2855H42V22.857Z" fill="#B3BFCB"/>
<path d="M40.5997 22.857H39.1998V24.2855H40.5997V22.857Z" fill="#B3BFCB"/>
<path d="M39.1999 22.857H37.8V24.2855H39.1999V22.857Z" fill="#B3BFCB"/>
<path d="M37.8 22.857H36.4001V24.2855H37.8V22.857Z" fill="#B3BFCB"/>
<path d="M36.3996 22.857H34.9998V24.2855H36.3996V22.857Z" fill="#B3BFCB"/>
<path d="M34.9998 22.857H33.6V24.2855H34.9998V22.857Z" fill="#B3BFCB"/>
<path d="M33.6 22.857H32.2002V24.2855H33.6V22.857Z" fill="#B3BFCB"/>
<path d="M32.1996 22.857H30.7998V24.2855H32.1996V22.857Z" fill="#B3BFCB"/>
<path d="M30.7998 22.857H29.4V24.2855H30.7998V22.857Z" fill="#B3BFCB"/>
<path d="M29.4001 22.857H28.0002V24.2855H29.4001V22.857Z" fill="#B3BFCB"/>
<path d="M27.9997 22.857H26.5999V24.2855H27.9997V22.857Z" fill="#B3BFCB"/>
<path d="M23.7996 22.857H22.3998V24.2855H23.7996V22.857Z" fill="#B3BFCB"/>
<path d="M22.3998 22.857H21V24.2855H22.3998V22.857Z" fill="#B3BFCB"/>
<path d="M21 22.857H19.6002V24.2855H21V22.857Z" fill="#B3BFCB"/>
<path d="M19.5997 22.857H18.1998V24.2855H19.5997V22.857Z" fill="#B3BFCB"/>
<path d="M15.3997 22.857H13.9999V24.2855H15.3997V22.857Z" fill="#B3BFCB"/>
<path d="M13.9998 22.857H12.6V24.2855H13.9998V22.857Z" fill="#B3BFCB"/>
<path d="M12.6 22.857H11.2002V24.2855H12.6V22.857Z" fill="#B3BFCB"/>
<path d="M11.1996 22.857H9.7998V24.2855H11.1996V22.857Z" fill="#B3BFCB"/>
<path d="M9.79985 22.857H8.40002V24.2855H9.79985V22.857Z" fill="#B3BFCB"/>
<path d="M8.39995 22.857H7.00012V24.2855H8.39995V22.857Z" fill="#B3BFCB"/>
<path d="M6.99968 22.857H5.59985V24.2855H6.99968V22.857Z" fill="#B3BFCB"/>
<path d="M5.59977 22.857H4.19995V24.2855H5.59977V22.857Z" fill="#B3BFCB"/>
<path d="M4.19999 22.857H2.80017V24.2855H4.19999V22.857Z" fill="#B3BFCB"/>
<path d="M2.7996 22.857H1.39978V24.2855H2.7996V22.857Z" fill="#B3BFCB"/>
<path d="M1.39982 22.857H0V24.2855H1.39982V22.857Z" fill="#B3BFCB"/>
<path d="M42 21.4285H40.6002V22.857H42V21.4285Z" fill="#B3BFCB"/>
<path d="M40.5997 21.4285H39.1998V22.857H40.5997V21.4285Z" fill="#B3BFCB"/>
<path d="M39.1999 21.4285H37.8V22.857H39.1999V21.4285Z" fill="#B3BFCB"/>
<path d="M37.8 21.4285H36.4001V22.857H37.8V21.4285Z" fill="#B3BFCB"/>
<path d="M36.3996 21.4285H34.9998V22.857H36.3996V21.4285Z" fill="#B3BFCB"/>
<path d="M34.9998 21.4285H33.6V22.857H34.9998V21.4285Z" fill="#B3BFCB"/>
<path d="M33.6 21.4285H32.2002V22.857H33.6V21.4285Z" fill="#B3BFCB"/>
<path d="M32.1996 21.4285H30.7998V22.857H32.1996V21.4285Z" fill="#B3BFCB"/>
<path d="M30.7998 21.4285H29.4V22.857H30.7998V21.4285Z" fill="#B3BFCB"/>
<path d="M29.4001 21.4285H28.0002V22.857H29.4001V21.4285Z" fill="#B3BFCB"/>
<path d="M27.9997 21.4285H26.5999V22.857H27.9997V21.4285Z" fill="#B3BFCB"/>
<path d="M26.5998 21.4285H25.2V22.857H26.5998V21.4285Z" fill="#B3BFCB"/>
<path d="M22.3998 21.4285H21V22.857H22.3998V21.4285Z" fill="#B3BFCB"/>
<path d="M21 21.4285H19.6002V22.857H21V21.4285Z" fill="#B3BFCB"/>
<path d="M16.8 21.4285H15.4001V22.857H16.8V21.4285Z" fill="#B3BFCB"/>
<path d="M15.3997 21.4285H13.9999V22.857H15.3997V21.4285Z" fill="#B3BFCB"/>
<path d="M13.9998 21.4285H12.6V22.857H13.9998V21.4285Z" fill="#B3BFCB"/>
<path d="M12.6 21.4285H11.2002V22.857H12.6V21.4285Z" fill="#B3BFCB"/>
<path d="M11.1996 21.4285H9.7998V22.857H11.1996V21.4285Z" fill="#B3BFCB"/>
<path d="M9.79985 21.4285H8.40002V22.857H9.79985V21.4285Z" fill="#B3BFCB"/>
<path d="M8.39995 21.4285H7.00012V22.857H8.39995V21.4285Z" fill="#B3BFCB"/>
<path d="M6.99968 21.4285H5.59985V22.857H6.99968V21.4285Z" fill="#B3BFCB"/>
<path d="M5.59977 21.4285H4.19995V22.857H5.59977V21.4285Z" fill="#B3BFCB"/>
<path d="M4.19999 21.4285H2.80017V22.857H4.19999V21.4285Z" fill="#B3BFCB"/>
<path d="M2.7996 21.4285H1.39978V22.857H2.7996V21.4285Z" fill="#B3BFCB"/>
<path d="M1.39982 21.4285H0V22.857H1.39982V21.4285Z" fill="#B3BFCB"/>
<path d="M40.5997 20H39.1998V21.4285H40.5997V20Z" fill="#B3BFCB"/>
<path d="M39.1999 20H37.8V21.4285H39.1999V20Z" fill="#B3BFCB"/>
<path d="M37.8 20H36.4001V21.4285H37.8V20Z" fill="#B3BFCB"/>
<path d="M36.3996 20H34.9998V21.4285H36.3996V20Z" fill="#B3BFCB"/>
<path d="M34.9998 20H33.6V21.4285H34.9998V20Z" fill="#B3BFCB"/>
<path d="M33.6 20H32.2002V21.4285H33.6V20Z" fill="#B3BFCB"/>
<path d="M32.1996 20H30.7998V21.4285H32.1996V20Z" fill="#B3BFCB"/>
<path d="M30.7998 20H29.4V21.4285H30.7998V20Z" fill="#B3BFCB"/>
<path d="M29.4001 20H28.0002V21.4285H29.4001V20Z" fill="#B3BFCB"/>
<path d="M27.9997 20H26.5999V21.4285H27.9997V20Z" fill="#B3BFCB"/>
<path d="M26.5998 20H25.2V21.4285H26.5998V20Z" fill="#B3BFCB"/>
<path d="M25.2 20H23.8002V21.4285H25.2V20Z" fill="#B3BFCB"/>
<path d="M18.1999 20H16.8V21.4285H18.1999V20Z" fill="#B3BFCB"/>
<path d="M16.8 20H15.4001V21.4285H16.8V20Z" fill="#B3BFCB"/>
<path d="M15.3997 20H13.9999V21.4285H15.3997V20Z" fill="#B3BFCB"/>
<path d="M13.9998 20H12.6V21.4285H13.9998V20Z" fill="#B3BFCB"/>
<path d="M12.6 20H11.2002V21.4285H12.6V20Z" fill="#B3BFCB"/>
<path d="M11.1996 20H9.7998V21.4285H11.1996V20Z" fill="#B3BFCB"/>
<path d="M9.79985 20H8.40002V21.4285H9.79985V20Z" fill="#B3BFCB"/>
<path d="M8.39995 20H7.00012V21.4285H8.39995V20Z" fill="#B3BFCB"/>
<path d="M6.99968 20H5.59985V21.4285H6.99968V20Z" fill="#B3BFCB"/>
<path d="M5.59977 20H4.19995V21.4285H5.59977V20Z" fill="#B3BFCB"/>
<path d="M4.19999 20H2.80017V21.4285H4.19999V20Z" fill="#B3BFCB"/>
<path d="M2.7996 20H1.39978V21.4285H2.7996V20Z" fill="#B3BFCB"/>
<path d="M40.5997 18.5715H39.1998V20H40.5997V18.5715Z" fill="#B3BFCB"/>
<path d="M39.1999 18.5715H37.8V20H39.1999V18.5715Z" fill="#B3BFCB"/>
<path d="M37.8 18.5715H36.4001V20H37.8V18.5715Z" fill="#B3BFCB"/>
<path d="M36.3996 18.5715H34.9998V20H36.3996V18.5715Z" fill="#B3BFCB"/>
<path d="M34.9998 18.5715H33.6V20H34.9998V18.5715Z" fill="#B3BFCB"/>
<path d="M33.6 18.5715H32.2002V20H33.6V18.5715Z" fill="#B3BFCB"/>
<path d="M32.1996 18.5715H30.7998V20H32.1996V18.5715Z" fill="#B3BFCB"/>
<path d="M30.7998 18.5715H29.4V20H30.7998V18.5715Z" fill="#B3BFCB"/>
<path d="M29.4001 18.5715H28.0002V20H29.4001V18.5715Z" fill="#B3BFCB"/>
<path d="M27.9997 18.5715H26.5999V20H27.9997V18.5715Z" fill="#B3BFCB"/>
<path d="M26.5998 18.5715H25.2V20H26.5998V18.5715Z" fill="#B3BFCB"/>
<path d="M25.2 18.5715H23.8002V20H25.2V18.5715Z" fill="#B3BFCB"/>
<path d="M18.1999 18.5715H16.8V20H18.1999V18.5715Z" fill="#B3BFCB"/>
<path d="M16.8 18.5715H15.4001V20H16.8V18.5715Z" fill="#B3BFCB"/>
<path d="M15.3997 18.5715H13.9999V20H15.3997V18.5715Z" fill="#B3BFCB"/>
<path d="M13.9998 18.5715H12.6V20H13.9998V18.5715Z" fill="#B3BFCB"/>
<path d="M12.6 18.5715H11.2002V20H12.6V18.5715Z" fill="#B3BFCB"/>
<path d="M11.1996 18.5715H9.7998V20H11.1996V18.5715Z" fill="#B3BFCB"/>
<path d="M9.79985 18.5715H8.40002V20H9.79985V18.5715Z" fill="#B3BFCB"/>
<path d="M8.39995 18.5715H7.00012V20H8.39995V18.5715Z" fill="#B3BFCB"/>
<path d="M6.99968 18.5715H5.59985V20H6.99968V18.5715Z" fill="#B3BFCB"/>
<path d="M5.59977 18.5715H4.19995V20H5.59977V18.5715Z" fill="#B3BFCB"/>
<path d="M4.19999 18.5715H2.80017V20H4.19999V18.5715Z" fill="#B3BFCB"/>
<path d="M2.7996 18.5715H1.39978V20H2.7996V18.5715Z" fill="#B3BFCB"/>
<path d="M42 17.143H40.6002V18.5715H42V17.143Z" fill="#B3BFCB"/>
<path d="M40.5997 17.143H39.1998V18.5715H40.5997V17.143Z" fill="#B3BFCB"/>
<path d="M39.1999 17.143H37.8V18.5715H39.1999V17.143Z" fill="#B3BFCB"/>
<path d="M37.8 17.143H36.4001V18.5715H37.8V17.143Z" fill="#B3BFCB"/>
<path d="M36.3996 17.143H34.9998V18.5715H36.3996V17.143Z" fill="#B3BFCB"/>
<path d="M34.9998 17.143H33.6V18.5715H34.9998V17.143Z" fill="#B3BFCB"/>
<path d="M33.6 17.143H32.2002V18.5715H33.6V17.143Z" fill="#B3BFCB"/>
<path d="M32.1996 17.143H30.7998V18.5715H32.1996V17.143Z" fill="#B3BFCB"/>
<path d="M30.7998 17.143H29.4V18.5715H30.7998V17.143Z" fill="#B3BFCB"/>
<path d="M29.4001 17.143H28.0002V18.5715H29.4001V17.143Z" fill="#B3BFCB"/>
<path d="M27.9997 17.143H26.5999V18.5715H27.9997V17.143Z" fill="#B3BFCB"/>
<path d="M26.5998 17.143H25.2V18.5715H26.5998V17.143Z" fill="#B3BFCB"/>
<path d="M25.2 17.143H23.8002V18.5715H25.2V17.143Z" fill="#B3BFCB"/>
<path d="M22.3998 17.143H21V18.5715H22.3998V17.143Z" fill="#B3BFCB"/>
<path d="M21 17.143H19.6002V18.5715H21V17.143Z" fill="#B3BFCB"/>
<path d="M18.1999 17.143H16.8V18.5715H18.1999V17.143Z" fill="#B3BFCB"/>
<path d="M16.8 17.143H15.4001V18.5715H16.8V17.143Z" fill="#B3BFCB"/>
<path d="M15.3997 17.143H13.9999V18.5715H15.3997V17.143Z" fill="#B3BFCB"/>
<path d="M13.9998 17.143H12.6V18.5715H13.9998V17.143Z" fill="#B3BFCB"/>
<path d="M12.6 17.143H11.2002V18.5715H12.6V17.143Z" fill="#B3BFCB"/>
<path d="M11.1996 17.143H9.7998V18.5715H11.1996V17.143Z" fill="#B3BFCB"/>
<path d="M9.79985 17.143H8.40002V18.5715H9.79985V17.143Z" fill="#B3BFCB"/>
<path d="M8.39995 17.143H7.00012V18.5715H8.39995V17.143Z" fill="#B3BFCB"/>
<path d="M6.99968 17.143H5.59985V18.5715H6.99968V17.143Z" fill="#B3BFCB"/>
<path d="M5.59977 17.143H4.19995V18.5715H5.59977V17.143Z" fill="#B3BFCB"/>
<path d="M4.19999 17.143H2.80017V18.5715H4.19999V17.143Z" fill="#B3BFCB"/>
<path d="M2.7996 17.143H1.39978V18.5715H2.7996V17.143Z" fill="#B3BFCB"/>
<path d="M1.39982 17.143H0V18.5715H1.39982V17.143Z" fill="#B3BFCB"/>
<path d="M42 15.7145H40.6002V17.143H42V15.7145Z" fill="#B3BFCB"/>
<path d="M40.5997 15.7145H39.1998V17.143H40.5997V15.7145Z" fill="#B3BFCB"/>
<path d="M39.1999 15.7145H37.8V17.143H39.1999V15.7145Z" fill="#B3BFCB"/>
<path d="M37.8 15.7145H36.4001V17.143H37.8V15.7145Z" fill="#B3BFCB"/>
<path d="M36.3996 15.7145H34.9998V17.143H36.3996V15.7145Z" fill="#B3BFCB"/>
<path d="M34.9998 15.7145H33.6V17.143H34.9998V15.7145Z" fill="#B3BFCB"/>
<path d="M33.6 15.7145H32.2002V17.143H33.6V15.7145Z" fill="#B3BFCB"/>
<path d="M32.1996 15.7145H30.7998V17.143H32.1996V15.7145Z" fill="#B3BFCB"/>
<path d="M30.7998 15.7145H29.4V17.143H30.7998V15.7145Z" fill="#B3BFCB"/>
<path d="M29.4001 15.7145H28.0002V17.143H29.4001V15.7145Z" fill="#B3BFCB"/>
<path d="M27.9997 15.7145H26.5999V17.143H27.9997V15.7145Z" fill="#B3BFCB"/>
<path d="M26.5998 15.7145H25.2V17.143H26.5998V15.7145Z" fill="#B3BFCB"/>
<path d="M23.7996 15.7145H22.3998V17.143H23.7996V15.7145Z" fill="#B3BFCB"/>
<path d="M22.3998 15.7145H21V17.143H22.3998V15.7145Z" fill="#B3BFCB"/>
<path d="M21 15.7145H19.6002V17.143H21V15.7145Z" fill="#B3BFCB"/>
<path d="M19.5997 15.7145H18.1998V17.143H19.5997V15.7145Z" fill="#B3BFCB"/>
<path d="M16.8 15.7145H15.4001V17.143H16.8V15.7145Z" fill="#B3BFCB"/>
<path d="M15.3997 15.7145H13.9999V17.143H15.3997V15.7145Z" fill="#B3BFCB"/>
<path d="M13.9998 15.7145H12.6V17.143H13.9998V15.7145Z" fill="#B3BFCB"/>
<path d="M12.6 15.7145H11.2002V17.143H12.6V15.7145Z" fill="#B3BFCB"/>
<path d="M11.1996 15.7145H9.7998V17.143H11.1996V15.7145Z" fill="#B3BFCB"/>
<path d="M9.79985 15.7145H8.40002V17.143H9.79985V15.7145Z" fill="#B3BFCB"/>
<path d="M8.39995 15.7145H7.00012V17.143H8.39995V15.7145Z" fill="#B3BFCB"/>
<path d="M6.99968 15.7145H5.59985V17.143H6.99968V15.7145Z" fill="#B3BFCB"/>
<path d="M5.59977 15.7145H4.19995V17.143H5.59977V15.7145Z" fill="#B3BFCB"/>
<path d="M4.19999 15.7145H2.80017V17.143H4.19999V15.7145Z" fill="#B3BFCB"/>
<path d="M2.7996 15.7145H1.39978V17.143H2.7996V15.7145Z" fill="#B3BFCB"/>
<path d="M1.39982 15.7145H0V17.143H1.39982V15.7145Z" fill="#B3BFCB"/>
<path d="M42 14.2855H40.6002V15.714H42V14.2855Z" fill="#B3BFCB"/>
<path d="M40.5997 14.2855H39.1998V15.714H40.5997V14.2855Z" fill="#B3BFCB"/>
<path d="M39.1999 14.2855H37.8V15.714H39.1999V14.2855Z" fill="#B3BFCB"/>
<path d="M37.8 14.2855H36.4001V15.714H37.8V14.2855Z" fill="#B3BFCB"/>
<path d="M36.3996 14.2855H34.9998V15.714H36.3996V14.2855Z" fill="#B3BFCB"/>
<path d="M34.9998 14.2855H33.6V15.714H34.9998V14.2855Z" fill="#B3BFCB"/>
<path d="M33.6 14.2855H32.2002V15.714H33.6V14.2855Z" fill="#B3BFCB"/>
<path d="M32.1996 14.2855H30.7998V15.714H32.1996V14.2855Z" fill="#B3BFCB"/>
<path d="M30.7998 14.2855H29.4V15.714H30.7998V14.2855Z" fill="#B3BFCB"/>
<path d="M29.4001 14.2855H28.0002V15.714H29.4001V14.2855Z" fill="#B3BFCB"/>
<path d="M27.9997 14.2855H26.5999V15.714H27.9997V14.2855Z" fill="#B3BFCB"/>
<path d="M25.2 14.2855H23.8002V15.714H25.2V14.2855Z" fill="#B3BFCB"/>
<path d="M23.7996 14.2855H22.3998V15.714H23.7996V14.2855Z" fill="#B3BFCB"/>
<path d="M22.3998 14.2855H21V15.714H22.3998V14.2855Z" fill="#B3BFCB"/>
<path d="M21 14.2855H19.6002V15.714H21V14.2855Z" fill="#B3BFCB"/>
<path d="M19.5997 14.2855H18.1998V15.714H19.5997V14.2855Z" fill="#B3BFCB"/>
<path d="M18.1999 14.2855H16.8V15.714H18.1999V14.2855Z" fill="#B3BFCB"/>
<path d="M15.3997 14.2855H13.9999V15.714H15.3997V14.2855Z" fill="#B3BFCB"/>
<path d="M13.9998 14.2855H12.6V15.714H13.9998V14.2855Z" fill="#B3BFCB"/>
<path d="M12.6 14.2855H11.2002V15.714H12.6V14.2855Z" fill="#B3BFCB"/>
<path d="M11.1996 14.2855H9.7998V15.714H11.1996V14.2855Z" fill="#B3BFCB"/>
<path d="M9.79985 14.2855H8.40002V15.714H9.79985V14.2855Z" fill="#B3BFCB"/>
<path d="M8.39995 14.2855H7.00012V15.714H8.39995V14.2855Z" fill="#B3BFCB"/>
<path d="M6.99968 14.2855H5.59985V15.714H6.99968V14.2855Z" fill="#B3BFCB"/>
<path d="M5.59977 14.2855H4.19995V15.714H5.59977V14.2855Z" fill="#B3BFCB"/>
<path d="M4.19999 14.2855H2.80017V15.714H4.19999V14.2855Z" fill="#B3BFCB"/>
<path d="M2.7996 14.2855H1.39978V15.714H2.7996V14.2855Z" fill="#B3BFCB"/>
<path d="M1.39982 14.2855H0V15.714H1.39982V14.2855Z" fill="#B3BFCB"/>
<path d="M42 12.857H40.6002V14.2855H42V12.857Z" fill="#B3BFCB"/>
<path d="M40.5997 12.857H39.1998V14.2855H40.5997V12.857Z" fill="#B3BFCB"/>
<path d="M39.1999 12.857H37.8V14.2855H39.1999V12.857Z" fill="#B3BFCB"/>
<path d="M37.8 12.857H36.4001V14.2855H37.8V12.857Z" fill="#B3BFCB"/>
<path d="M36.3996 12.857H34.9998V14.2855H36.3996V12.857Z" fill="#B3BFCB"/>
<path d="M34.9998 12.857H33.6V14.2855H34.9998V12.857Z" fill="#B3BFCB"/>
<path d="M33.6 12.857H32.2002V14.2855H33.6V12.857Z" fill="#B3BFCB"/>
<path d="M32.1996 12.857H30.7998V14.2855H32.1996V12.857Z" fill="#B3BFCB"/>
<path d="M30.7998 12.857H29.4V14.2855H30.7998V12.857Z" fill="#B3BFCB"/>
<path d="M26.5998 12.857H25.2V14.2855H26.5998V12.857Z" fill="#B3BFCB"/>
<path d="M25.2 12.857H23.8002V14.2855H25.2V12.857Z" fill="#B3BFCB"/>
<path d="M23.7996 12.857H22.3998V14.2855H23.7996V12.857Z" fill="#B3BFCB"/>
<path d="M22.3998 12.857H21V14.2855H22.3998V12.857Z" fill="#B3BFCB"/>
<path d="M21 12.857H19.6002V14.2855H21V12.857Z" fill="#B3BFCB"/>
<path d="M19.5997 12.857H18.1998V14.2855H19.5997V12.857Z" fill="#B3BFCB"/>
<path d="M18.1999 12.857H16.8V14.2855H18.1999V12.857Z" fill="#B3BFCB"/>
<path d="M16.8 12.857H15.4001V14.2855H16.8V12.857Z" fill="#B3BFCB"/>
<path d="M13.9998 12.857H12.6V14.2855H13.9998V12.857Z" fill="#B3BFCB"/>
<path d="M12.6 12.857H11.2002V14.2855H12.6V12.857Z" fill="#B3BFCB"/>
<path d="M11.1996 12.857H9.7998V14.2855H11.1996V12.857Z" fill="#B3BFCB"/>
<path d="M9.79985 12.857H8.40002V14.2855H9.79985V12.857Z" fill="#B3BFCB"/>
<path d="M8.39995 12.857H7.00012V14.2855H8.39995V12.857Z" fill="#B3BFCB"/>
<path d="M6.99968 12.857H5.59985V14.2855H6.99968V12.857Z" fill="#B3BFCB"/>
<path d="M5.59977 12.857H4.19995V14.2855H5.59977V12.857Z" fill="#B3BFCB"/>
<path d="M4.19999 12.857H2.80017V14.2855H4.19999V12.857Z" fill="#B3BFCB"/>
<path d="M2.7996 12.857H1.39978V14.2855H2.7996V12.857Z" fill="#B3BFCB"/>
<path d="M1.39982 12.857H0V14.2855H1.39982V12.857Z" fill="#B3BFCB"/>
<path d="M40.5997 11.4285H39.1998V12.857H40.5997V11.4285Z" fill="#B3BFCB"/>
<path d="M39.1999 11.4285H37.8V12.857H39.1999V11.4285Z" fill="#B3BFCB"/>
<path d="M37.8 11.4285H36.4001V12.857H37.8V11.4285Z" fill="#B3BFCB"/>
<path d="M36.3996 11.4285H34.9998V12.857H36.3996V11.4285Z" fill="#B3BFCB"/>
<path d="M34.9998 11.4285H33.6V12.857H34.9998V11.4285Z" fill="#B3BFCB"/>
<path d="M33.6 11.4285H32.2002V12.857H33.6V11.4285Z" fill="#B3BFCB"/>
<path d="M32.1996 11.4285H30.7998V12.857H32.1996V11.4285Z" fill="#B3BFCB"/>
<path d="M27.9997 11.4285H26.5999V12.857H27.9997V11.4285Z" fill="#B3BFCB"/>
<path d="M26.5998 11.4285H25.2V12.857H26.5998V11.4285Z" fill="#B3BFCB"/>
<path d="M25.2 11.4285H23.8002V12.857H25.2V11.4285Z" fill="#B3BFCB"/>
<path d="M23.7996 11.4285H22.3998V12.857H23.7996V11.4285Z" fill="#B3BFCB"/>
<path d="M22.3998 11.4285H21V12.857H22.3998V11.4285Z" fill="#B3BFCB"/>
<path d="M21 11.4285H19.6002V12.857H21V11.4285Z" fill="#B3BFCB"/>
<path d="M19.5997 11.4285H18.1998V12.857H19.5997V11.4285Z" fill="#B3BFCB"/>
<path d="M18.1999 11.4285H16.8V12.857H18.1999V11.4285Z" fill="#B3BFCB"/>
<path d="M16.8 11.4285H15.4001V12.857H16.8V11.4285Z" fill="#B3BFCB"/>
<path d="M15.3997 11.4285H13.9999V12.857H15.3997V11.4285Z" fill="#B3BFCB"/>
<path d="M11.1996 11.4285H9.7998V12.857H11.1996V11.4285Z" fill="#B3BFCB"/>
<path d="M9.79985 11.4285H8.40002V12.857H9.79985V11.4285Z" fill="#B3BFCB"/>
<path d="M8.39995 11.4285H7.00012V12.857H8.39995V11.4285Z" fill="#B3BFCB"/>
<path d="M6.99968 11.4285H5.59985V12.857H6.99968V11.4285Z" fill="#B3BFCB"/>
<path d="M5.59977 11.4285H4.19995V12.857H5.59977V11.4285Z" fill="#B3BFCB"/>
<path d="M4.19999 11.4285H2.80017V12.857H4.19999V11.4285Z" fill="#B3BFCB"/>
<path d="M2.7996 11.4285H1.39978V12.857H2.7996V11.4285Z" fill="#B3BFCB"/>
<path d="M39.1999 10H37.8V11.4285H39.1999V10Z" fill="#B3BFCB"/>
<path d="M37.8 10H36.4001V11.4285H37.8V10Z" fill="#B3BFCB"/>
<path d="M36.3996 10H34.9998V11.4285H36.3996V10Z" fill="#B3BFCB"/>
<path d="M34.9998 10H33.6V11.4285H34.9998V10Z" fill="#B3BFCB"/>
<path d="M33.6 10H32.2002V11.4285H33.6V10Z" fill="#B3BFCB"/>
<path d="M29.4001 10H28.0002V11.4285H29.4001V10Z" fill="#B3BFCB"/>
<path d="M27.9997 10H26.5999V11.4285H27.9997V10Z" fill="#B3BFCB"/>
<path d="M26.5998 10H25.2V11.4285H26.5998V10Z" fill="#B3BFCB"/>
<path d="M25.2 10H23.8002V11.4285H25.2V10Z" fill="#B3BFCB"/>
<path d="M23.7996 10H22.3998V11.4285H23.7996V10Z" fill="#B3BFCB"/>
<path d="M22.3998 10H21V11.4285H22.3998V10Z" fill="#B3BFCB"/>
<path d="M21 10H19.6002V11.4285H21V10Z" fill="#B3BFCB"/>
<path d="M19.5997 10H18.1998V11.4285H19.5997V10Z" fill="#B3BFCB"/>
<path d="M18.1999 10H16.8V11.4285H18.1999V10Z" fill="#B3BFCB"/>
<path d="M16.8 10H15.4001V11.4285H16.8V10Z" fill="#B3BFCB"/>
<path d="M15.3997 10H13.9999V11.4285H15.3997V10Z" fill="#B3BFCB"/>
<path d="M13.9998 10H12.6V11.4285H13.9998V10Z" fill="#B3BFCB"/>
<path d="M9.79985 10H8.40002V11.4285H9.79985V10Z" fill="#B3BFCB"/>
<path d="M8.39995 10H7.00012V11.4285H8.39995V10Z" fill="#B3BFCB"/>
<path d="M6.99968 10H5.59985V11.4285H6.99968V10Z" fill="#B3BFCB"/>
<path d="M5.59977 10H4.19995V11.4285H5.59977V10Z" fill="#B3BFCB"/>
<path d="M4.19999 10H2.80017V11.4285H4.19999V10Z" fill="#B3BFCB"/>
<path d="M29.4001 8.57153H28.0002V10H29.4001V8.57153Z" fill="#B3BFCB"/>
<path d="M27.9997 8.57153H26.5999V10H27.9997V8.57153Z" fill="#B3BFCB"/>
<path d="M26.5998 8.57153H25.2V10H26.5998V8.57153Z" fill="#B3BFCB"/>
<path d="M25.2 8.57153H23.8002V10H25.2V8.57153Z" fill="#B3BFCB"/>
<path d="M23.7996 8.57153H22.3998V10H23.7996V8.57153Z" fill="#B3BFCB"/>
<path d="M22.3998 8.57153H21V10H22.3998V8.57153Z" fill="#B3BFCB"/>
<path d="M21 8.57153H19.6002V10H21V8.57153Z" fill="#B3BFCB"/>
<path d="M19.5997 8.57153H18.1998V10H19.5997V8.57153Z" fill="#B3BFCB"/>
<path d="M18.1999 8.57153H16.8V10H18.1999V8.57153Z" fill="#B3BFCB"/>
<path d="M16.8 8.57153H15.4001V10H16.8V8.57153Z" fill="#B3BFCB"/>
<path d="M15.3997 8.57153H13.9999V10H15.3997V8.57153Z" fill="#B3BFCB"/>
<path d="M13.9998 8.57153H12.6V10H13.9998V8.57153Z" fill="#B3BFCB"/>
<path d="M12.6 8.57153H11.2002V10H12.6V8.57153Z" fill="#B3BFCB"/>
<path d="M30.7998 7.14301H29.4V8.5715H30.7998V7.14301Z" fill="#B3BFCB"/>
<path d="M29.4001 7.14301H28.0002V8.5715H29.4001V7.14301Z" fill="#B3BFCB"/>
<path d="M27.9997 7.14301H26.5999V8.5715H27.9997V7.14301Z" fill="#B3BFCB"/>
<path d="M26.5998 7.14301H25.2V8.5715H26.5998V7.14301Z" fill="#B3BFCB"/>
<path d="M25.2 7.14301H23.8002V8.5715H25.2V7.14301Z" fill="#B3BFCB"/>
<path d="M23.7996 7.14301H22.3998V8.5715H23.7996V7.14301Z" fill="#B3BFCB"/>
<path d="M22.3998 7.14301H21V8.5715H22.3998V7.14301Z" fill="#B3BFCB"/>
<path d="M21 7.14301H19.6002V8.5715H21V7.14301Z" fill="#B3BFCB"/>
<path d="M19.5997 7.14301H18.1998V8.5715H19.5997V7.14301Z" fill="#B3BFCB"/>
<path d="M18.1999 7.14301H16.8V8.5715H18.1999V7.14301Z" fill="#B3BFCB"/>
<path d="M16.8 7.14301H15.4001V8.5715H16.8V7.14301Z" fill="#B3BFCB"/>
<path d="M15.3997 7.14301H13.9999V8.5715H15.3997V7.14301Z" fill="#B3BFCB"/>
<path d="M13.9998 7.14301H12.6V8.5715H13.9998V7.14301Z" fill="#B3BFCB"/>
<path d="M12.6 7.14301H11.2002V8.5715H12.6V7.14301Z" fill="#B3BFCB"/>
<path d="M30.7998 5.71454H29.4V7.14303H30.7998V5.71454Z" fill="#B3BFCB"/>
<path d="M29.4001 5.71454H28.0002V7.14303H29.4001V5.71454Z" fill="#B3BFCB"/>
<path d="M27.9997 5.71454H26.5999V7.14303H27.9997V5.71454Z" fill="#B3BFCB"/>
<path d="M26.5998 5.71454H25.2V7.14303H26.5998V5.71454Z" fill="#B3BFCB"/>
<path d="M25.2 5.71454H23.8002V7.14303H25.2V5.71454Z" fill="#B3BFCB"/>
<path d="M23.7996 5.71454H22.3998V7.14303H23.7996V5.71454Z" fill="#B3BFCB"/>
<path d="M22.3998 5.71454H21V7.14303H22.3998V5.71454Z" fill="#B3BFCB"/>
<path d="M21 5.71454H19.6002V7.14303H21V5.71454Z" fill="#B3BFCB"/>
<path d="M19.5997 5.71454H18.1998V7.14303H19.5997V5.71454Z" fill="#B3BFCB"/>
<path d="M18.1999 5.71454H16.8V7.14303H18.1999V5.71454Z" fill="#B3BFCB"/>
<path d="M16.8 5.71454H15.4001V7.14303H16.8V5.71454Z" fill="#B3BFCB"/>
<path d="M15.3997 5.71454H13.9999V7.14303H15.3997V5.71454Z" fill="#B3BFCB"/>
<path d="M13.9998 5.71454H12.6V7.14303H13.9998V5.71454Z" fill="#B3BFCB"/>
<path d="M12.6 5.71454H11.2002V7.14303H12.6V5.71454Z" fill="#B3BFCB"/>
<path d="M30.7998 4.28546H29.4V5.71396H30.7998V4.28546Z" fill="#B3BFCB"/>
<path d="M29.4001 4.28546H28.0002V5.71396H29.4001V4.28546Z" fill="#B3BFCB"/>
<path d="M27.9997 4.28546H26.5999V5.71396H27.9997V4.28546Z" fill="#B3BFCB"/>
<path d="M26.5998 4.28546H25.2V5.71396H26.5998V4.28546Z" fill="#B3BFCB"/>
<path d="M25.2 4.28546H23.8002V5.71396H25.2V4.28546Z" fill="#B3BFCB"/>
<path d="M23.7996 4.28546H22.3998V5.71396H23.7996V4.28546Z" fill="#B3BFCB"/>
<path d="M22.3998 4.28546H21V5.71396H22.3998V4.28546Z" fill="#B3BFCB"/>
<path d="M21 4.28546H19.6002V5.71396H21V4.28546Z" fill="#B3BFCB"/>
<path d="M19.5997 4.28546H18.1998V5.71396H19.5997V4.28546Z" fill="#B3BFCB"/>
<path d="M18.1999 4.28546H16.8V5.71396H18.1999V4.28546Z" fill="#B3BFCB"/>
<path d="M16.8 4.28546H15.4001V5.71396H16.8V4.28546Z" fill="#B3BFCB"/>
<path d="M15.3997 4.28546H13.9999V5.71396H15.3997V4.28546Z" fill="#B3BFCB"/>
<path d="M13.9998 4.28546H12.6V5.71396H13.9998V4.28546Z" fill="#B3BFCB"/>
<path d="M12.6 4.28546H11.2002V5.71396H12.6V4.28546Z" fill="#B3BFCB"/>
<path d="M30.7998 2.85699H29.4V4.28549H30.7998V2.85699Z" fill="#B3BFCB"/>
<path d="M29.4001 2.85699H28.0002V4.28549H29.4001V2.85699Z" fill="#B3BFCB"/>
<path d="M27.9997 2.85699H26.5999V4.28549H27.9997V2.85699Z" fill="#B3BFCB"/>
<path d="M26.5998 2.85699H25.2V4.28549H26.5998V2.85699Z" fill="#B3BFCB"/>
<path d="M25.2 2.85699H23.8002V4.28549H25.2V2.85699Z" fill="#B3BFCB"/>
<path d="M23.7996 2.85699H22.3998V4.28549H23.7996V2.85699Z" fill="#B3BFCB"/>
<path d="M22.3998 2.85699H21V4.28549H22.3998V2.85699Z" fill="#B3BFCB"/>
<path d="M21 2.85699H19.6002V4.28549H21V2.85699Z" fill="#B3BFCB"/>
<path d="M19.5997 2.85699H18.1998V4.28549H19.5997V2.85699Z" fill="#B3BFCB"/>
<path d="M18.1999 2.85699H16.8V4.28549H18.1999V2.85699Z" fill="#B3BFCB"/>
<path d="M16.8 2.85699H15.4001V4.28549H16.8V2.85699Z" fill="#B3BFCB"/>
<path d="M15.3997 2.85699H13.9999V4.28549H15.3997V2.85699Z" fill="#B3BFCB"/>
<path d="M13.9998 2.85699H12.6V4.28549H13.9998V2.85699Z" fill="#B3BFCB"/>
<path d="M12.6 2.85699H11.2002V4.28549H12.6V2.85699Z" fill="#B3BFCB"/>
<path d="M29.4001 1.42847H28.0002V2.85696H29.4001V1.42847Z" fill="#B3BFCB"/>
<path d="M27.9997 1.42847H26.5999V2.85696H27.9997V1.42847Z" fill="#B3BFCB"/>
<path d="M26.5998 1.42847H25.2V2.85696H26.5998V1.42847Z" fill="#B3BFCB"/>
<path d="M25.2 1.42847H23.8002V2.85696H25.2V1.42847Z" fill="#B3BFCB"/>
<path d="M23.7996 1.42847H22.3998V2.85696H23.7996V1.42847Z" fill="#B3BFCB"/>
<path d="M22.3998 1.42847H21V2.85696H22.3998V1.42847Z" fill="#B3BFCB"/>
<path d="M21 1.42847H19.6002V2.85696H21V1.42847Z" fill="#B3BFCB"/>
<path d="M19.5997 1.42847H18.1998V2.85696H19.5997V1.42847Z" fill="#B3BFCB"/>
<path d="M18.1999 1.42847H16.8V2.85696H18.1999V1.42847Z" fill="#B3BFCB"/>
<path d="M16.8 1.42847H15.4001V2.85696H16.8V1.42847Z" fill="#B3BFCB"/>
<path d="M15.3997 1.42847H13.9999V2.85696H15.3997V1.42847Z" fill="#B3BFCB"/>
<path d="M13.9998 1.42847H12.6V2.85696H13.9998V1.42847Z" fill="#B3BFCB"/>
<path d="M27.9997 0H26.5999V1.42849H27.9997V0Z" fill="#B3BFCB"/>
<path d="M26.5998 0H25.2V1.42849H26.5998V0Z" fill="#B3BFCB"/>
<path d="M25.2 0H23.8002V1.42849H25.2V0Z" fill="#B3BFCB"/>
<path d="M23.7996 0H22.3998V1.42849H23.7996V0Z" fill="#B3BFCB"/>
<path d="M19.5997 0H18.1998V1.42849H19.5997V0Z" fill="#B3BFCB"/>
<path d="M18.1999 0H16.8V1.42849H18.1999V0Z" fill="#B3BFCB"/>
<path d="M16.8 0H15.4001V1.42849H16.8V0Z" fill="#B3BFCB"/>
<path d="M15.3997 0H13.9999V1.42849H15.3997V0Z" fill="#B3BFCB"/>
</g>
<defs>
<clipPath id="clip0_3_1095">
<rect width="42" height="40" fill="white"/>
</clipPath>
</defs>
</svg>
